<?xml version="1.0" encoding="UTF-8" standalone="no"?><!DOCTYPE svg PUBLIC "-//W3C//DTD SVG 1.1//EN" "http://www.w3.org/Graphics/SVG/1.1/DTD/svg11.dtd"><!-- Generated by graphviz version 2.40.1 (20161225.0304)
 --><!-- Title: G Pages: 1 --><svg xmlns="http://www.w3.org/2000/svg" xmlns:xlink="http://www.w3.org/1999/xlink" width="313pt" height="357pt" viewBox="0.00 0.00 312.86 357.40">
<g id="graph0" class="graph" transform="scale(1 1) rotate(0) translate(4 353.4)">
<title>G</title>
<polygon fill="#ffffff" stroke="transparent" points="-4,4 -4,-353.4 308.8642,-353.4 308.8642,4 -4,4"/>
<!-- setup -->
<g id="node1" class="node">
<title>setup</title>
<polygon fill="none" stroke="#000000" points="209.8934,-349.4 63.6245,-349.4 63.6245,-313.4 209.8934,-313.4 209.8934,-349.4"/>
<text text-anchor="middle" x="136.759" y="-327.2" font-family="Times,serif" font-size="14.00" fill="#000000">User initializes settings</text>
</g>
<!-- initialize -->
<g id="node2" class="node">
<title>initialize</title>
<polygon fill="none" stroke="#000000" points="228.983,-276.4 44.535,-276.4 44.535,-240.4 228.983,-240.4 228.983,-276.4"/>
<text text-anchor="middle" x="136.759" y="-254.2" font-family="Times,serif" font-size="14.00" fill="#000000">Initialize goal to a sigma-state</text>
</g>
<!-- setup&#45;&gt;initialize -->
<g id="edge1" class="edge">
<title>setup-&gt;initialize</title>
<path fill="none" stroke="#000000" d="M136.759,-313.3551C136.759,-305.2828 136.759,-295.5764 136.759,-286.5817"/>
<polygon fill="#000000" stroke="#000000" points="140.2591,-286.4903 136.759,-276.4904 133.2591,-286.4904 140.2591,-286.4903"/>
</g>
<!-- solve -->
<g id="node3" class="node">
<title>solve</title>
<polygon fill="none" stroke="#000000" points="230.318,-203.2019 43.2,-203.2019 43.2,-161.9981 230.318,-161.9981 230.318,-203.2019"/>
<text text-anchor="middle" x="136.759" y="-186.8" font-family="Times,serif" font-size="14.00" fill="#000000">Solve current goals to produce</text>
<text text-anchor="middle" x="136.759" y="-170" font-family="Times,serif" font-size="14.00" fill="#000000">subgoals and events</text>
</g>
<!-- initialize&#45;&gt;solve -->
<g id="edge2" class="edge">
<title>initialize-&gt;solve</title>
<path fill="none" stroke="#000000" d="M136.759,-240.0509C136.759,-232.115 136.759,-222.6041 136.759,-213.6258"/>
<polygon fill="#000000" stroke="#000000" points="140.2591,-213.4568 136.759,-203.4568 133.2591,-213.4569 140.2591,-213.4568"/>
</g>
<!-- assert -->
<g id="node4" class="node">
<title>assert</title>
<polygon fill="none" stroke="#000000" points="202.1997,-124.8 29.3182,-124.8 29.3182,-88.8 202.1997,-88.8 202.1997,-124.8"/>
<text text-anchor="middle" x="115.759" y="-102.6" font-family="Times,serif" font-size="14.00" fill="#000000">Assert event into "memory"</text>
</g>
<!-- solve&#45;&gt;assert -->
<g id="edge3" class="edge">
<title>solve-&gt;assert</title>
<path fill="none" stroke="#000000" d="M131.0206,-161.8873C128.6913,-153.4794 125.9652,-143.6398 123.4667,-134.6212"/>
<polygon fill="#000000" stroke="#000000" points="126.8186,-133.6103 120.7757,-124.9078 120.0727,-135.4793 126.8186,-133.6103"/>
</g>
<!-- infer -->
<g id="node5" class="node">
<title>infer</title>
<polygon fill="none" stroke="#000000" points="201.8984,-36 29.6196,-36 29.6196,0 201.8984,0 201.8984,-36"/>
<text text-anchor="middle" x="115.759" y="-13.8" font-family="Times,serif" font-size="14.00" fill="#000000">Infer consequences of event</text>
</g>
<!-- assert&#45;&gt;infer -->
<g id="edge4" class="edge">
<title>assert-&gt;infer</title>
<path fill="none" stroke="#000000" d="M115.759,-88.4006C115.759,-76.2949 115.759,-60.2076 115.759,-46.4674"/>
<polygon fill="#000000" stroke="#000000" points="119.2591,-46.072 115.759,-36.072 112.2591,-46.0721 119.2591,-46.072"/>
</g>
<!-- infer&#45;&gt;solve -->
<g id="edge6" class="edge">
<title>infer:e-&gt;solve:e</title>
<path fill="none" stroke="#000000" d="M201.759,-18C272.4142,-18 302.1013,-166.9182 240.9082,-181.461"/>
<polygon fill="#000000" stroke="#000000" points="240.3062,-178.0065 230.759,-182.6 241.087,-184.9628 240.3062,-178.0065"/>
<text text-anchor="middle" x="289.3116" y="-102.6" font-family="Times,serif" font-size="14.00" fill="#000000">  goal</text>
</g>
<!-- infer&#45;&gt;assert -->
<g id="edge5" class="edge">
<title>infer:w-&gt;assert:w</title>
<path fill="none" stroke="#000000" d="M29.759,-18C-6.0077,-18 -9.3608,-90.9305 19.6996,-104.6049"/>
<polygon fill="#000000" stroke="#000000" points="19.2427,-108.0875 29.759,-106.8 20.7351,-101.2484 19.2427,-108.0875"/>
<text text-anchor="middle" x="19.4189" y="-58.2" font-family="Times,serif" font-size="14.00" fill="#000000">  event</text>
</g>
</g>
</svg>