<?xml version="1.0" encoding="UTF-8" standalone="no"?><!DOCTYPE svg PUBLIC "-//W3C//DTD SVG 1.1//EN" "http://www.w3.org/Graphics/SVG/1.1/DTD/svg11.dtd"><!-- Generated by graphviz version 2.40.1 (20161225.0304)
 --><!-- Title: G Pages: 1 --><svg xmlns="http://www.w3.org/2000/svg" xmlns:xlink="http://www.w3.org/1999/xlink" width="474pt" height="552pt" viewBox="0.00 0.00 474.41 551.80">
<g id="graph0" class="graph" transform="scale(1 1) rotate(0) translate(4 547.8)">
<title>G</title>
<polygon fill="#ffffff" stroke="transparent" points="-4,4 -4,-547.8 470.4058,-547.8 470.4058,4 -4,4"/>
<!-- initialize -->
<g id="node1" class="node">
<title>initialize</title>
<polygon fill="none" stroke="#000000" points="319.3641,-543.6019 178.2559,-543.6019 178.2559,-502.3981 319.3641,-502.3981 319.3641,-543.6019"/>
<text text-anchor="middle" x="248.81" y="-527.2" font-family="Times,serif" font-size="14.00" fill="#000000">Initialize current_state</text>
<text text-anchor="middle" x="248.81" y="-510.4" font-family="Times,serif" font-size="14.00" fill="#000000">and target_state</text>
</g>
<!-- plan -->
<g id="node2" class="node">
<title>plan</title>
<polygon fill="none" stroke="#000000" points="341.9563,-465.0019 155.6637,-465.0019 155.6637,-423.7981 341.9563,-423.7981 341.9563,-465.0019"/>
<text text-anchor="middle" x="248.81" y="-448.6" font-family="Times,serif" font-size="14.00" fill="#000000">Generate list of actions</text>
<text text-anchor="middle" x="248.81" y="-431.8" font-family="Times,serif" font-size="14.00" fill="#000000">i.e. a plan to reach target_state</text>
</g>
<!-- initialize&#45;&gt;plan -->
<g id="edge1" class="edge">
<title>initialize-&gt;plan</title>
<path fill="none" stroke="#000000" d="M248.81,-502.3488C248.81,-494.1105 248.81,-484.4489 248.81,-475.402"/>
<polygon fill="#000000" stroke="#000000" points="252.3101,-475.1862 248.81,-465.1862 245.3101,-475.1862 252.3101,-475.1862"/>
</g>
<!-- execute -->
<g id="node3" class="node">
<title>execute</title>
<polygon fill="none" stroke="#000000" points="290.2089,-386.6 121.4111,-386.6 121.4111,-350.6 290.2089,-350.6 290.2089,-386.6"/>
<text text-anchor="middle" x="205.81" y="-364.4" font-family="Times,serif" font-size="14.00" fill="#000000">Execute next action in plan</text>
</g>
<!-- plan&#45;&gt;execute -->
<g id="edge2" class="edge">
<title>plan-&gt;execute</title>
<path fill="none" stroke="#000000" d="M237.0601,-423.6873C232.1365,-415.0082 226.3476,-404.8034 221.0988,-395.551"/>
<polygon fill="#000000" stroke="#000000" points="224.0608,-393.6788 216.0822,-386.7078 217.9722,-397.1327 224.0608,-393.6788"/>
</g>
<!-- event -->
<g id="node7" class="node">
<title>event</title>
<polygon fill="none" stroke="#000000" points="205.81,-313.7002 130.9223,-272 205.81,-230.2998 280.6977,-272 205.81,-313.7002"/>
<text text-anchor="middle" x="205.81" y="-276.2" font-family="Times,serif" font-size="14.00" fill="#000000">Was event</text>
<text text-anchor="middle" x="205.81" y="-259.4" font-family="Times,serif" font-size="14.00" fill="#000000">triggered?</text>
</g>
<!-- execute&#45;&gt;event -->
<g id="edge3" class="edge">
<title>execute-&gt;event</title>
<path fill="none" stroke="#000000" d="M205.81,-350.4303C205.81,-342.8044 205.81,-333.5101 205.81,-324.023"/>
<polygon fill="#000000" stroke="#000000" points="209.3101,-323.7228 205.81,-313.7228 202.3101,-323.7228 209.3101,-323.7228"/>
</g>
<!-- mutate -->
<g id="node4" class="node">
<title>mutate</title>
<polygon fill="none" stroke="#000000" points="466.5017,-156.6019 243.1183,-156.6019 243.1183,-115.3981 466.5017,-115.3981 466.5017,-156.6019"/>
<text text-anchor="middle" x="354.81" y="-140.2" font-family="Times,serif" font-size="14.00" fill="#000000">Mutate current_state and target_state</text>
<text text-anchor="middle" x="354.81" y="-123.4" font-family="Times,serif" font-size="14.00" fill="#000000">Destroy plan</text>
</g>
<!-- mutate&#45;&gt;plan -->
<g id="edge5" class="edge">
<title>mutate-&gt;plan:e</title>
<path fill="none" stroke="#000000" d="M362.608,-156.7139C386.8067,-223.7677 453.1137,-431.3051 351.7955,-443.8093"/>
<polygon fill="#000000" stroke="#000000" points="351.5859,-440.3155 341.81,-444.4 351.9993,-447.3033 351.5859,-440.3155"/>
</g>
<!-- end -->
<g id="node5" class="node">
<title>end</title>
<polygon fill="none" stroke="#000000" points="179.5852,-41.4019 46.0348,-41.4019 46.0348,-.1981 179.5852,-.1981 179.5852,-41.4019"/>
<text text-anchor="middle" x="112.81" y="-25" font-family="Times,serif" font-size="14.00" fill="#000000">target_state achieved</text>
<text text-anchor="middle" x="112.81" y="-8.2" font-family="Times,serif" font-size="14.00" fill="#000000">THE END</text>
</g>
<!-- plan_more -->
<g id="node6" class="node">
<title>plan_more</title>
<polygon fill="none" stroke="#000000" points="112.81,-177.7002 .1897,-136 112.81,-94.2998 225.4303,-136 112.81,-177.7002"/>
<text text-anchor="middle" x="112.81" y="-140.2" font-family="Times,serif" font-size="14.00" fill="#000000">Are there more</text>
<text text-anchor="middle" x="112.81" y="-123.4" font-family="Times,serif" font-size="14.00" fill="#000000">steps in the plan?</text>
</g>
<!-- plan_more&#45;&gt;execute -->
<g id="edge7" class="edge">
<title>plan_more:nw-&gt;execute</title>
<path fill="none" stroke="#000000" d="M81.81,-167C34.0539,-214.7561 82.0904,-258.9772 121.81,-313.6 131.0604,-326.3213 144.2259,-336.9079 157.3973,-345.2841"/>
<polygon fill="#000000" stroke="#000000" points="155.6398,-348.3113 166.0125,-350.4695 159.2496,-342.3139 155.6398,-348.3113"/>
<text text-anchor="middle" x="83.4573" y="-283.8961" font-family="Times,serif" font-size="14.00" fill="#000000">Yes </text>
</g>
<!-- plan_more&#45;&gt;end -->
<g id="edge8" class="edge">
<title>plan_more-&gt;end</title>
<path fill="none" stroke="#000000" d="M112.81,-94.0843C112.81,-80.1119 112.81,-64.8067 112.81,-51.8137"/>
<polygon fill="#000000" stroke="#000000" points="116.3101,-51.5233 112.81,-41.5233 109.3101,-51.5233 116.3101,-51.5233"/>
<text text-anchor="middle" x="124.8633" y="-63.8" font-family="Times,serif" font-size="14.00" fill="#000000">  No</text>
</g>
<!-- event&#45;&gt;mutate -->
<g id="edge4" class="edge">
<title>event-&gt;mutate</title>
<path fill="none" stroke="#000000" d="M234.1865,-246.0993C260.0079,-222.5308 298.0167,-187.8382 324.4421,-163.7184"/>
<polygon fill="#000000" stroke="#000000" points="326.8797,-166.2322 331.9062,-156.9055 322.1607,-161.062 326.8797,-166.2322"/>
<text text-anchor="middle" x="299.6929" y="-199.8" font-family="Times,serif" font-size="14.00" fill="#000000">Yes</text>
</g>
<!-- event&#45;&gt;plan_more -->
<g id="edge6" class="edge">
<title>event-&gt;plan_more:ne</title>
<path fill="none" stroke="#000000" d="M191.3683,-238.3221C181.8905,-218.737 168.0651,-194.1295 150.8449,-174.521"/>
<polygon fill="#000000" stroke="#000000" points="153.1972,-171.9123 143.81,-167 148.085,-176.6941 153.1972,-171.9123"/>
<text text-anchor="middle" x="188.8633" y="-199.8" font-family="Times,serif" font-size="14.00" fill="#000000">  No</text>
</g>
</g>
</svg>